<?xml version="1.0" encoding="UTF-8"?>
<svg xmlns="http://www.w3.org/2000/svg" version="1.1" viewBox="0 0 512 512">
  <defs>
    <style>
      .cls-1 {
        fill: #3d131d;
      }
    </style>
  </defs>
  <!-- Generator: Adobe Illustrator 28.7.1, SVG Export Plug-In . SVG Version: 1.2.0 Build 142)  -->
  <g>
    <g id="Layer_1">
      <g>
        <path class="cls-1" d="M255.6,275.6v-46h-7.5v22h-23.4v-22h-7.5v46.2c.1,2,1.8,3.5,3.8,3.5s3.6-1.6,3.8-3.6h0s0-.3,0-.3v-21.3h23.4v21.4s0,0,0,0c0,2.1,1.7,3.8,3.8,3.8s3.8-1.7,3.8-3.8h0Z"/>
        <path class="cls-1" d="M389.6,275.8c0,2,1.7,3.6,3.7,3.6s3.7-1.6,3.8-3.6v-46.1h-7.5v46.1Z"/>
        <path class="cls-1" d="M203.4,270.1c-.6,0-1.2.2-1.6.6,0,0,0,0,0,0-3.7,3.4-8.5,5.2-13.4,5.2-9.7,0-16.7-9.2-16.7-21.8s7-21.8,16.7-21.8,9.3,1.6,12.9,4.4l2,1.6v-5.8l-.7-.4c-4.2-2.3-9-3.4-14.3-3.4-13.9,0-24.8,11.1-24.8,25.2s10.9,25.2,24.8,25.2,11.6-1.7,15.7-4.8l.6-.5c.5-.4.9-1,.9-1.8,0-1.2-1-2.2-2.2-2.2"/>
        <path class="cls-1" d="M104.5,232.3h0c.7,0,1.4-.6,1.4-1.3s-.6-1.4-1.4-1.4h-27.5v49.6h27.4s0,0,0,0c.7,0,1.4-.6,1.4-1.3s-.6-1.3-1.3-1.3,0,0,0,0h-20v-22.3h16.5c.7,0,1.3-.6,1.3-1.3s-.6-1.3-1.3-1.3h-16.5v-19.3h20Z"/>
        <path class="cls-1" d="M127.7,259.7l7.4-18.8,7.4,18.9h-14.8ZM156.4,274.6l-19.2-48.7-20.8,53.4h3.7l6.3-16.9h17l5.9,14.9c.7,1.9,2.8,2.9,4.7,2.2,2-.7,3-2.8,2.3-4.8h0Z"/>
        <path class="cls-1" d="M46.2,229.6h-12.6v46c0,2.1,1.7,3.8,3.8,3.8s3.8-1.7,3.8-3.7v-43.3h3.4c7.2,0,10.7,3.5,10.7,10.8s-.9,6.2-2.7,7.9c-1.8,1.6-4.1,2.4-7.5,2.4h0s0,0,0,0h0c-.7,0-1.3.6-1.3,1.3s.6,1.3,1.3,1.3,0,0,0,0h1.6c2.9,0,5.5-.4,7.9-1.3,5.5-2,8.6-6.1,8.6-11.7,0-8.2-6.6-13.5-16.9-13.5"/>
        <path class="cls-1" d="M299.8,274.5c-5.5,0-8.7-3.6-8.7-9.7s1.6-8,5.4-11.3l13.8,17.7c-2.7,2.2-6.2,3.3-10.4,3.3M299.4,236.3c2.5,0,3.1,2.4,3.1,4.4s-.9,4.7-2.8,6.4h0c-3.1-4.1-3.1-5.6-3.1-7.3s.2-3.5,2.9-3.5M325,279.6c-.1-.1-8.6-11-8.6-11,1.8-3.3,3-7.3,3.4-12.2v-1.2c0,0-2.9,0-2.9,0v1c-.4,3.8-1.2,7.1-2.5,9.7l-12.7-16.3c2.9-2.1,5.8-4.7,5.8-8.8s-3.2-7.6-7.9-7.6-8.5,3.5-8.5,8.9.4,4.7,3.5,8.9c-7.1,5-10.3,8.4-10.3,14.8s5.9,11.9,15.1,11.9,9.6-1.3,12.9-3.9l7.7,9.8h0s0,0,0,.1c1.1,1.4,3.1,1.7,4.6.6,1.4-1.1,1.7-3.1.6-4.6,0,0,0,0,0,0"/>
        <path class="cls-1" d="M376.2,276.6h-17.3v-47h-7.5v49.7h24.8c.7,0,1.3-.6,1.3-1.3s-.6-1.3-1.3-1.3"/>
        <path class="cls-1" d="M436.9,276.6h-17.3v-47h-7.5v49.7h24.8c.7,0,1.3-.6,1.3-1.3s-.6-1.3-1.3-1.3"/>
        <path class="cls-1" d="M478.6,229.6h-2.9l-13.4,22.9-13.6-22.9h-8.5l15.6,26.4v19.5h0c0,2.2,1.7,3.8,3.8,3.8s3.8-1.7,3.8-3.7v-19.9c0,0,15.3-26.2,15.3-26.2Z"/>
      </g>
    </g>
  </g>
</svg>