<?xml version="1.0" encoding="UTF-8"?>
<svg xmlns="http://www.w3.org/2000/svg" version="1.1" viewBox="0 0 512 512">
  <!-- Generator: Adobe Illustrator 28.7.1, SVG Export Plug-In . SVG Version: 1.2.0 Build 142)  -->
  <g>
    <g id="Layer_1">
      <path d="M47.8,65.4c-7.6-.3-14.9,3.4-19.1,9.7-4.2,6.4-4.8,14.5-1.5,21.4l69,144.3h159.6c8.8,0,16,7.2,16,16s-1.7,8.3-4.7,11.3c-3,3-7.1,4.7-11.3,4.7H96.3L27.3,417.2c-3.9,8.1-2.4,17.7,3.8,24.3,6.2,6.5,15.7,8.6,24,5.2l418.2-169.7c.7-.4,1.5-.8,2.2-1.3,1-.5,1.9-1,2.8-1.7.9-.7,1.7-1.5,2.4-2.3.8-.8,1.5-1.6,2.2-2.4.6-.9,1.1-1.9,1.6-2.9.5-1,1-2,1.3-3,.3-1.1.5-2.2.6-3.3.2-1.1.3-2.2.4-3.3,0-1.1-.2-2.2-.4-3.3-.1-1.1-.3-2.2-.6-3.3-.4-1-.8-2-1.3-3-.5-1-1-2-1.6-2.9-.7-.9-1.4-1.7-2.2-2.4-.7-.8-1.6-1.6-2.4-2.3-.9-.6-1.8-1.2-2.8-1.7-.7-.5-1.4-.9-2.2-1.3L55,67c-2.3-.9-4.8-1.5-7.3-1.6h0ZM47.8,65.4"/>
    </g>
  </g>
</svg>